<?xml version="1.0" encoding="UTF-8"?>
<svg id="Calque_1" data-name="Calque 1" xmlns="http://www.w3.org/2000/svg" viewBox="0 0 1825.39 728.57">
  <defs>
    <style>
      .cls-1 {
        fill: #fff;
        stroke-width: 0px;
      }
    </style>
  </defs>
  <path class="cls-1" d="m1168.32,361.75c-1.69,0-3.06-1.37-3.06-3.06v-210.84c0-28.71,23.36-52.07,52.07-52.07h62.37c55.07,0,99.88,44.81,99.88,99.88s-44.81,99.88-99.88,99.88h-58.86c-1.69,0-3.06-1.37-3.06-3.06s1.37-3.06,3.06-3.06h58.86c51.7,0,93.75-42.06,93.75-93.75s-42.06-93.75-93.75-93.75h-62.37c-25.33,0-45.94,20.61-45.94,45.94v210.84c0,1.69-1.37,3.06-3.06,3.06Z"/>
  <path class="cls-1" d="m897.69,363.5c-1.69,0-3.06-1.37-3.06-3.06v-164.78c0-55.07,44.81-99.88,99.88-99.88s99.88,44.81,99.88,99.88v161.27c0,1.69-1.37,3.06-3.06,3.06s-3.06-1.37-3.06-3.06v-161.27c0-51.7-42.06-93.75-93.75-93.75s-93.75,42.06-93.75,93.75v164.78c0,1.69-1.37,3.06-3.06,3.06Z"/>
  <path class="cls-1" d="m3.06,361.75c-1.69,0-3.06-1.37-3.06-3.06v-210.84c0-28.71,23.36-52.07,52.07-52.07h62.37c55.07,0,99.88,44.81,99.88,99.88s-44.81,99.88-99.88,99.88h-58.86c-1.69,0-3.06-1.37-3.06-3.06s1.37-3.06,3.06-3.06h58.86c51.7,0,93.75-42.06,93.75-93.75s-42.06-93.75-93.75-93.75h-62.37c-25.33,0-45.94,20.61-45.94,45.94v210.84c0,1.69-1.37,3.06-3.06,3.06Z"/>
  <path class="cls-1" d="m1347.04,361.75c-.8,0-1.6-.31-2.2-.93l-46.15-47.55c-1.18-1.21-1.15-3.15.07-4.33,1.21-1.18,3.15-1.15,4.33.07l46.15,47.55c1.18,1.21,1.15,3.15-.07,4.33-.59.58-1.36.86-2.13.86Z"/>
  <path class="cls-1" d="m1038.81,295.32h-88.61c-1.69,0-3.06-1.37-3.06-3.06s1.37-3.06,3.06-3.06h88.61c1.69,0,3.06,1.37,3.06,3.06s-1.37,3.06-3.06,3.06Z"/>
  <path class="cls-1" d="m430.22,85.89c-80.78,0-146.26,65.48-146.26,146.26s65.48,146.26,146.26,146.26,146.26-65.48,146.26-146.26-65.48-146.26-146.26-146.26Zm7.37,284.41c-72.23,0-130.78-58.55-130.78-130.78s58.55-130.78,130.78-130.78,130.78,58.55,130.78,130.78-58.55,130.78-130.78,130.78Z"/>
  <path class="cls-1" d="m820.68,361.75h-116.33c-29.06,0-52.69-23.64-52.69-52.7V98.84c0-1.69,1.37-3.06,3.06-3.06s3.06,1.37,3.06,3.06v210.21c0,25.68,20.89,46.57,46.57,46.57h116.33c1.69,0,3.06,1.37,3.06,3.06s-1.37,3.06-3.06,3.06Z"/>
  <polygon class="cls-1" points="342.67 140.49 470.81 136.3 342.67 132.12 401.61 69.2 338.69 128.13 334.5 0 330.32 128.13 267.4 69.2 326.34 132.12 198.2 136.3 326.34 140.49 267.4 203.41 330.32 144.47 334.5 272.61 338.69 144.47 401.61 203.41 342.67 140.49"/>
  <g>
    <path class="cls-1" d="m766.27,629.4h79.7c3.27,0,6.73-3.46,6.73-6.73v-22.52c0-2.56-2.13-5.21-4.62-6.25v18.05c0,1.55-2.06,3.61-3.61,3.61h-81.56v35.1h3.35v-21.25Z"/>
    <path class="cls-1" d="m855.82,551.03c0,1.55-2.07,3.61-3.61,3.61h-89.3v31.49h3.35v-18.54h87.56c3.27,0,6.73-3.46,6.73-6.73v-22.53c0-2.6-2.19-5.29-4.73-6.29v18.99Z"/>
    <path class="cls-1" d="m857.37,659.32v17.14c0,1.55-2.06,3.61-3.61,3.61h-122.85c-1.55,0-3.1-1.55-3.1-3.1v-144.53c-1.91,1.1-3.29,3.15-3.29,5.37v150.87c0,3.25,2.96,6.21,6.21,6.21h124.67c3.27,0,6.73-3.46,6.73-6.73v-22.52c0-2.61-2.21-5.31-4.76-6.3Z"/>
  </g>
  <g>
    <path class="cls-1" d="m1047.58,584.32c0,1.81-1.29,3.35-4.13,3.35h-26.58c-2.58,0-3.87-1.03-4.39-4.13-2.58-17.81-18.84-31.49-42.07-31.49-26.58,0-48.26,20.39-48.26,50.59,0,12.69,3.74,23.68,10.12,32.17-2.82-6.4-4.41-13.66-4.41-21.57,0-27.97,19.31-48.27,45.92-48.27,21.18,0,37.12,11.79,39.67,29.39.75,4.48,3.26,6.75,7.47,6.75h26.98c4.98,0,7.25-3.35,7.25-6.47,0-14.93-6.28-30.3-18.4-42.41,7.09,9.73,10.82,20.93,10.82,32.09Z"/>
    <path class="cls-1" d="m1047.64,627.73h-.22c-2.35,31.36-32.89,54.92-77,54.92-46.71,0-83.36-32.26-83.36-80.01,0-1.05.04-2.09.08-3.13-.66,4.44-1.01,9.02-1.01,13.72,0,48.82,36.87,84.26,87.66,84.26,47.15,0,81.38-26.4,81.38-62.78,0-4.38-3.82-6.99-7.52-6.99Z"/>
  </g>
  <g>
    <path class="cls-1" d="m1124.23,650.65h8.7v-112.84c0-3.25-2.96-6.2-6.21-6.2h-2.49v119.04Z"/>
    <path class="cls-1" d="m1207.4,658.9h-3.16v17.56c0,1.55-2.07,3.61-3.61,3.61h-108.4c-.36,0-.71-.1-1.05-.24v8.85c0,3.25,2.96,6.21,6.21,6.21h110.01c3.27,0,6.73-3.46,6.73-6.73v-22.52c0-3.27-3.46-6.73-6.73-6.73Z"/>
  </g>
  <path class="cls-1" d="m1280.46,531.61h-4.74v145.37c0,1.55-1.55,3.1-3.1,3.1h-27.71v8.6c0,3.25,2.96,6.21,6.21,6.21h29.33c3.25,0,6.2-2.96,6.2-6.21v-150.87c0-3.25-2.96-6.2-6.2-6.2Z"/>
  <g>
    <path class="cls-1" d="m1437.18,538.18c13.43,10.08,21.52,25.6,21.52,45.11,0,35.87-27.87,57.04-64.26,57.04h-34.07v36.65c0,1.55-1.55,3.1-3.1,3.1h-26.45v8.6c0,3.25,2.96,6.21,6.21,6.21h29.33c3.25,0,6.2-2.96,6.2-6.21v-34.13h31.51c40.84,0,68.28-24.49,68.28-60.95,0-25.81-13.32-45.7-35.18-55.42Z"/>
    <path class="cls-1" d="m1372.57,567.59h28.63c8.87,0,16.08,2.4,21.16,6.71-3.66-12.39-15.13-19.66-30.75-19.66h-31.23v57.81h12.2v-44.86Z"/>
  </g>
  <g>
    <path class="cls-1" d="m1577.17,617.87l-40.26-3.35c-16.59-1.36-29.06-6.05-37.18-13.55,6.53,15.73,23.23,25.29,48.67,27.37l40.86,3.4c3.31.28,6.12.81,8.53,1.55,0-.15.03-.3.03-.45,0-7.23-5.16-13.68-20.65-14.97Z"/>
    <path class="cls-1" d="m1625.69,569.35c0,2.32-1.81,4.39-4.91,4.39h-23.81c1.63,1.95,2.7,4.21,3.14,6.74.72,4.3,3.32,6.49,7.74,6.49h25.93c4.58,0,8.04-3.23,8.04-7.51,0-17.75-10.02-36.38-35.91-45.22,13.49,8.73,19.78,21.48,19.78,35.11Z"/>
    <path class="cls-1" d="m1618.91,601.11c9.73,7.81,14.01,18.49,14.01,30.19,0,24.26-20.9,51.36-70.97,51.36-28.99,0-49.96-8.48-61.87-20.92,8.34,19.19,32.19,35.77,73.98,35.77,51.87,0,75.09-27.72,75.09-55.18,0-19.59-10.78-33.89-30.24-41.21Z"/>
    <path class="cls-1" d="m1541.87,650.62c-1.75-2.39-2.94-5.18-3.57-8.39-.82-4.12-3.75-6.39-8.24-6.39h-5.16c2.51,6.79,7.88,11.91,16.98,14.78Z"/>
    <path class="cls-1" d="m1557.55,552.06c-21.68,0-33.81,8.78-33.81,20.13,0,6.27,3.79,11.07,14.89,12.72-.27-1.02-.28-1.94-.28-2.58,0-10.39,12.56-17.37,31.25-17.37,8.57,0,15.58,1.34,20.74,3.83-2.05-8.64-10.98-16.74-32.8-16.74Z"/>
  </g>
  <g>
    <path class="cls-1" d="m1802.47,551.03c0,1.55-2.06,3.61-3.61,3.61h-89.3v31.49h17.36v-18.54h87.56c3.27,0,6.73-3.46,6.73-6.73v-22.53c0-3.27-3.46-6.73-6.73-6.73h-12.01v19.42Z"/>
    <path class="cls-1" d="m1813.36,622.67v-22.52c0-3.27-3.46-6.73-6.73-6.73h-11.9v18.52c0,1.55-2.06,3.61-3.61,3.61h-81.56v35.1h17.36v-21.25h79.7c3.27,0,6.73-3.46,6.73-6.73Z"/>
    <path class="cls-1" d="m1816.06,658.9h-12.03v17.56c0,1.55-2.06,3.61-3.61,3.61h-115.23v8.6c0,3.25,2.96,6.21,6.21,6.21h124.67c3.27,0,6.73-3.46,6.73-6.73v-22.52c0-3.27-3.46-6.73-6.73-6.73Z"/>
  </g>
  <path class="cls-1" d="m87.49,728.57s488.99-476.2,1737.9-292.33c0,0-1135.06-163.64-1737.9,292.33Z"/>
</svg>